<svg width="24" height="23" viewBox="0 0 24 23" fill="none" xmlns="http://www.w3.org/2000/svg">
<path d="M18.6889 22.877C17.733 22.877 16.5785 22.6472 15.3088 22.1877C12.5254 21.1813 9.49693 19.1921 6.78145 16.5878C4.06521 13.9828 1.99113 11.0776 0.940948 8.4081C-0.0134078 5.98093 -0.015726 3.9888 0.935539 3.07722C1.07232 2.94604 1.21141 2.80523 1.35515 2.65997C2.22295 1.78471 3.20358 0.799759 4.50336 0.844226C5.39899 0.8798 6.2668 1.41341 7.15547 2.47395C9.7813 5.60592 8.59744 6.72205 7.22734 8.01605L6.98546 8.24579C6.76136 8.46072 6.33789 9.45604 10.2774 13.2343C11.5633 14.4675 12.6598 15.3702 13.5361 15.9164C14.0879 16.2603 15.0747 16.7805 15.4796 16.3922L15.723 16.1565C17.0707 14.8455 18.2345 13.7138 21.4979 16.2299C22.6037 17.0822 23.1593 17.9137 23.1964 18.7741C23.2497 20.02 22.215 20.9627 21.3016 21.7942C21.1509 21.9321 21.0041 22.0655 20.8673 22.1959C20.3951 22.6495 19.6401 22.877 18.6889 22.877ZM4.41063 1.58386C3.48719 1.58386 2.65338 2.42578 1.9154 3.1706C1.76703 3.32031 1.62329 3.46557 1.48188 3.60119C0.77326 4.28006 0.845126 6.06394 1.66425 8.14722C2.67656 10.7204 4.68805 13.5322 7.32857 16.0646C9.96831 18.5955 12.8986 20.5247 15.5824 21.4948C17.7546 22.2819 19.6146 22.3486 20.3217 21.6704C20.4631 21.5348 20.6146 21.397 20.7707 21.2554C21.5643 20.5321 22.4646 19.7124 22.4252 18.8031C22.3981 18.1783 21.9237 17.5061 21.0149 16.8057C18.2956 14.7084 17.5352 15.4487 16.274 16.6753L16.0267 16.9147C15.424 17.4935 14.4449 17.3653 13.1158 16.5367C12.1939 15.9616 11.0548 15.0263 9.73184 13.7568C6.46231 10.6218 5.41676 8.70307 6.43989 7.7196L6.6864 7.48615C7.96841 6.27664 8.74194 5.54663 6.55426 2.93715C5.82246 2.06633 5.12234 1.61129 4.47091 1.5846C4.45082 1.58386 4.43072 1.58386 4.41063 1.58386Z" fill="black"/>
</svg>
