<svg width="24" height="17" viewBox="0 0 24 17" fill="none" xmlns="http://www.w3.org/2000/svg">
<path d="M18.8326 13.2806C18.7414 13.2806 18.6503 13.2472 18.5791 13.1798L14.3147 9.17923C14.1658 9.0399 14.1583 8.80496 14.2984 8.656C14.4385 8.50555 14.6719 8.49888 14.8224 8.63969L19.0868 12.6403C19.2358 12.7796 19.2432 13.0145 19.1031 13.1635C19.0297 13.2413 18.9319 13.2806 18.8326 13.2806Z" fill="black"/>
<path d="M4.5978 13.2802C4.49923 13.2802 4.40066 13.241 4.32729 13.1631C4.18721 13.0142 4.19463 12.7792 4.34359 12.6399L8.60948 8.63934C8.75919 8.50001 8.99412 8.50594 9.13345 8.65564C9.27352 8.80461 9.26611 9.03954 9.11715 9.17887L4.85126 13.1794C4.78011 13.2469 4.68895 13.2802 4.5978 13.2802Z" fill="black"/>
<path d="M21.3545 17.0001H2.07643C1.05517 17.0001 0.223633 16.1693 0.223633 15.1473V2.51345C0.223633 1.49144 1.05517 0.660645 2.07643 0.660645H21.3545C22.3757 0.660645 23.2073 1.49144 23.2073 2.51345V15.1473C23.2073 16.1693 22.3757 17.0001 21.3545 17.0001ZM2.07643 1.40176C1.46353 1.40176 0.964753 1.90054 0.964753 2.51345V15.1473C0.964753 15.7602 1.46353 16.259 2.07643 16.259H21.3545C21.9674 16.259 22.4661 15.7602 22.4661 15.1473V2.51345C22.4661 1.90054 21.9674 1.40176 21.3545 1.40176H2.07643Z" fill="black"/>
<path d="M11.7155 10.6925C11.2226 10.6925 10.7298 10.5287 10.3548 10.2019L0.838776 1.9006C0.684623 1.76646 0.668319 1.53226 0.802462 1.37737C0.938087 1.22321 1.17154 1.20913 1.32569 1.34179L10.8417 9.64234C11.3153 10.0551 12.1157 10.0551 12.5885 9.64234L22.0926 1.35513C22.246 1.22099 22.4795 1.23581 22.6159 1.39071C22.75 1.5456 22.7344 1.77906 22.5803 1.91394L13.0762 10.2011C12.7004 10.5287 12.2083 10.6925 11.7155 10.6925Z" fill="black"/>
</svg>
