<svg width="21" height="27" viewBox="0 0 21 27" fill="none" xmlns="http://www.w3.org/2000/svg">
<path d="M10.1073 26.8247C10.3012 27.0413 10.6341 27.0597 10.8507 26.8658C10.8651 26.8529 10.8788 26.8392 10.8917 26.8247L10.8983 26.8173C11.3848 26.267 20.7246 15.7013 20.7246 10.233M10.1073 26.8247L10.4801 26.4914C10.48 26.4914 10.4799 26.4913 10.4799 26.4912M10.1073 26.8247C9.70728 26.3773 0.274414 15.7285 0.274414 10.233M10.1073 26.8247L10.4799 26.4912M10.4799 26.4912C10.4895 26.502 10.5062 26.503 10.5172 26.4932L10.5172 26.4932L10.5191 26.4913L10.5173 26.4933L10.5173 26.4934L10.5171 26.4936L10.5192 26.4955L10.5196 26.4959L10.8917 26.8247L10.5192 26.4912L10.5235 26.4863C10.7619 26.2166 13.1812 23.4798 15.55 20.1311C16.7466 18.4396 17.9226 16.6027 18.7975 14.8562C19.6795 13.0957 20.2246 11.4865 20.2246 10.2332M10.4799 26.4912C10.2839 26.272 7.8407 23.5148 5.44908 20.1332C4.25253 18.4413 3.07653 16.6039 2.20161 14.857C1.31961 13.096 0.774488 11.4865 0.774414 10.2332M20.2246 10.2332L20.7246 10.233M20.2246 10.2332C20.2246 10.2332 20.2246 10.2331 20.2246 10.233H20.7246M20.2246 10.2332C20.2218 4.86296 15.8721 0.508607 10.502 0.5M20.7246 10.233C20.7217 4.58675 16.1483 0.0086854 10.5021 0M10.5021 0L10.5026 0.5C10.5024 0.5 10.5022 0.5 10.502 0.5M10.5021 0C4.85386 0.00579026 0.277309 4.58471 0.274414 10.233M10.5021 0L10.5014 0.499999C10.5016 0.5 10.5018 0.5 10.502 0.5M10.502 0.5C5.12995 0.505854 0.777306 4.86088 0.774414 10.233M0.274414 10.233H0.774414M0.274414 10.233H0.774414M0.274414 10.233L0.774414 10.2332M0.274414 10.233L0.774414 10.2332M0.774414 10.2332C0.774414 10.2331 0.774414 10.2331 0.774414 10.233M10.1221 25.9969L10.5012 26.4402L10.8814 25.9978C11.7862 24.9448 14.0938 22.1927 16.1779 19.1334C17.2197 17.6043 18.2127 15.988 18.9472 14.4618C19.6753 12.9487 20.1771 11.4685 20.1771 10.2277C20.1771 4.88437 15.8455 0.552775 10.5021 0.552775C5.15878 0.552775 0.82719 4.88437 0.82719 10.2277C0.82719 11.4685 1.329 12.9481 2.05711 14.4604C2.79157 15.9858 3.78466 17.6011 4.8264 19.1296C6.9105 22.1874 9.21814 24.9396 10.1221 25.9969Z" stroke="black"/>
<path d="M10.687 5.13232C7.62581 5.13522 5.14652 7.61924 5.14942 10.6805C5.15231 13.7417 7.63633 16.2209 10.6975 16.218C13.7567 16.2152 16.2351 13.7344 16.2351 10.6752C16.2293 7.61431 13.7479 5.13522 10.687 5.13232ZM10.687 15.1705C8.2072 15.1705 6.19693 13.1603 6.19693 10.6805C6.19693 8.20064 8.2072 6.19036 10.687 6.19036C13.1668 6.19036 15.1771 8.20064 15.1771 10.6805C15.1742 13.1591 13.1656 15.1676 10.687 15.1705Z" fill="black"/>
</svg>
