<svg width="91" height="44" viewBox="0 0 91 44" fill="none" xmlns="http://www.w3.org/2000/svg">
<path d="M13.918 12.3164C13.7852 14.1523 13.1055 15.5977 11.8789 16.6523C10.6602 17.707 9.05078 18.2344 7.05078 18.2344C4.86328 18.2344 3.14062 17.5 1.88281 16.0312C0.632812 14.5547 0.0078125 12.5312 0.0078125 9.96094V8.91797C0.0078125 7.27734 0.296875 5.83203 0.875 4.58203C1.45312 3.33203 2.27734 2.375 3.34766 1.71094C4.42578 1.03906 5.67578 0.703125 7.09766 0.703125C9.06641 0.703125 10.6523 1.23047 11.8555 2.28516C13.0586 3.33984 13.7539 4.82031 13.9414 6.72656H10.4258C10.3398 5.625 10.0312 4.82812 9.5 4.33594C8.97656 3.83594 8.17578 3.58594 7.09766 3.58594C5.92578 3.58594 5.04688 4.00781 4.46094 4.85156C3.88281 5.6875 3.58594 6.98828 3.57031 8.75391V10.043C3.57031 11.8867 3.84766 13.2344 4.40234 14.0859C4.96484 14.9375 5.84766 15.3633 7.05078 15.3633C8.13672 15.3633 8.94531 15.1172 9.47656 14.625C10.0156 14.125 10.3242 13.3555 10.4023 12.3164H13.918ZM23.3516 18C23.1953 17.6953 23.082 17.3164 23.0117 16.8633C22.1914 17.7773 21.125 18.2344 19.8125 18.2344C18.5703 18.2344 17.5391 17.875 16.7188 17.1562C15.9062 16.4375 15.5 15.5312 15.5 14.4375C15.5 13.0938 15.9961 12.0625 16.9883 11.3438C17.9883 10.625 19.4297 10.2617 21.3125 10.2539H22.8711V9.52734C22.8711 8.94141 22.7188 8.47266 22.4141 8.12109C22.1172 7.76953 21.6445 7.59375 20.9961 7.59375C20.4258 7.59375 19.9766 7.73047 19.6484 8.00391C19.3281 8.27734 19.168 8.65234 19.168 9.12891H15.7812C15.7812 8.39453 16.0078 7.71484 16.4609 7.08984C16.9141 6.46484 17.5547 5.97656 18.3828 5.625C19.2109 5.26562 20.1406 5.08594 21.1719 5.08594C22.7344 5.08594 23.9727 5.48047 24.8867 6.26953C25.8086 7.05078 26.2695 8.15234 26.2695 9.57422V15.0703C26.2773 16.2734 26.4453 17.1836 26.7734 17.8008V18H23.3516ZM20.5508 15.6445C21.0508 15.6445 21.5117 15.5352 21.9336 15.3164C22.3555 15.0898 22.668 14.7891 22.8711 14.4141V12.2344H21.6055C19.9102 12.2344 19.0078 12.8203 18.8984 13.9922L18.8867 14.1914C18.8867 14.6133 19.0352 14.9609 19.332 15.2344C19.6289 15.5078 20.0352 15.6445 20.5508 15.6445ZM29.0469 15.2695C29.8125 14.457 30.332 13.6523 30.6055 12.8555C30.8789 12.0586 31.0312 10.9297 31.0625 9.46875L31.1562 5.32031H40.4844V15.2695H42.3125V21.8086H38.9258V18H31.4141V21.8086H27.957V15.2695H29.0469ZM33.043 15.2695H37.1094V8.12109H34.4727L34.4492 9.64453C34.3789 11.9727 33.9102 13.8477 33.043 15.2695ZM52.9648 12.3281C53.0664 13.4297 53.3906 14.2227 53.9375 14.707C54.4844 15.1836 55.2773 15.4219 56.3164 15.4219C57.4648 15.4219 58.3164 15.043 58.8711 14.2852C59.4258 13.5195 59.7461 12.3906 59.832 10.8984H54.4414V8.05078H59.8203C59.7266 6.52734 59.3828 5.39844 58.7891 4.66406C58.2031 3.92188 57.3633 3.55078 56.2695 3.55078C55.207 3.55078 54.4102 3.80469 53.8789 4.3125C53.3477 4.8125 53.0391 5.62109 52.9531 6.73828H49.4375C49.6094 4.87109 50.2891 3.39844 51.4766 2.32031C52.6719 1.24219 54.2695 0.703125 56.2695 0.703125C57.6914 0.703125 58.9375 1.03906 60.0078 1.71094C61.0859 2.375 61.9141 3.33203 62.4922 4.58203C63.0703 5.82422 63.3594 7.27344 63.3594 8.92969V10.043C63.3594 12.5586 62.7305 14.5547 61.4727 16.0312C60.2227 17.5 58.5039 18.2344 56.3164 18.2344C54.3008 18.2344 52.6836 17.7031 51.4648 16.6406C50.2539 15.5703 49.582 14.1328 49.4492 12.3281H52.9648ZM70.5898 13.3242H69.2305V18H65.8438V5.32031H69.2305V10.0898H70.4375L73.2031 5.32031H77.4805L73.332 11.3555L77.8672 18H73.3555L70.5898 13.3242ZM77.9375 11.543C77.9375 10.2852 78.1797 9.16406 78.6641 8.17969C79.1484 7.19531 79.8438 6.43359 80.75 5.89453C81.6641 5.35547 82.7227 5.08594 83.9258 5.08594C85.6367 5.08594 87.0312 5.60938 88.1094 6.65625C89.1953 7.70312 89.8008 9.125 89.9258 10.9219L89.9492 11.7891C89.9492 13.7344 89.4062 15.2969 88.3203 16.4766C87.2344 17.6484 85.7773 18.2344 83.9492 18.2344C82.1211 18.2344 80.6602 17.6484 79.5664 16.4766C78.4805 15.3047 77.9375 13.7109 77.9375 11.6953V11.543ZM81.3242 11.7891C81.3242 12.9922 81.5508 13.9141 82.0039 14.5547C82.457 15.1875 83.1055 15.5039 83.9492 15.5039C84.7695 15.5039 85.4102 15.1914 85.8711 14.5664C86.332 13.9336 86.5625 12.9258 86.5625 11.543C86.5625 10.3633 86.332 9.44922 85.8711 8.80078C85.4102 8.15234 84.7617 7.82812 83.9258 7.82812C83.0977 7.82812 82.457 8.15234 82.0039 8.80078C81.5508 9.44141 81.3242 10.4375 81.3242 11.7891Z" fill="#2D2D2D"/>
<path d="M8.83594 40H7.875V29.4453H1.4375V40H0.476562V28.625H8.83594V40ZM16.2216 31.5469H17.1591V40H16.2216V33.0547L11.6591 40H10.7294V31.5469H11.6591V38.5L16.2216 31.5469ZM24.8572 32.3438H21.7791V40H20.8416V32.3438H17.8806V31.5469H24.8572V32.3438ZM24.6725 35.6484C24.6725 34.8359 24.8288 34.1042 25.1413 33.4531C25.459 32.8021 25.9043 32.2969 26.4772 31.9375C27.0553 31.5729 27.709 31.3906 28.4381 31.3906C29.5631 31.3906 30.4746 31.7865 31.1725 32.5781C31.8704 33.3646 32.2194 34.4089 32.2194 35.7109V35.9062C32.2194 36.724 32.0605 37.4609 31.7428 38.1172C31.4303 38.7682 30.9876 39.2708 30.4147 39.625C29.8418 39.9792 29.1881 40.1562 28.4538 40.1562C27.334 40.1562 26.4225 39.763 25.7194 38.9766C25.0215 38.1849 24.6725 37.138 24.6725 35.8359V35.6484ZM25.61 35.9062C25.61 36.9167 25.8704 37.7474 26.3913 38.3984C26.9173 39.0443 27.6048 39.3672 28.4538 39.3672C29.2975 39.3672 29.9798 39.0443 30.5006 38.3984C31.0267 37.7474 31.2897 36.8906 31.2897 35.8281V35.6484C31.2897 35.0026 31.1699 34.4115 30.9303 33.875C30.6907 33.3385 30.3548 32.9245 29.9225 32.6328C29.4902 32.3359 28.9954 32.1875 28.4381 32.1875C27.6048 32.1875 26.9251 32.5156 26.3991 33.1719C25.873 33.8229 25.61 34.6771 25.61 35.7344V35.9062ZM37.9566 38.7344L41.3159 31.5469H42.4722V40H41.5347V33.0625L38.2847 40H37.6206L34.3081 32.9062V40H33.3784V31.5469H34.605L37.9566 38.7344ZM50.5922 40H49.6547V36.125H45.1V40H44.1625V31.5469H45.1V35.3359H49.6547V31.5469H50.5922V40ZM57.7747 31.5469H58.7122V40H57.7747V33.0547L53.2122 40H52.2825V31.5469H53.2122V38.5L57.7747 31.5469ZM62.6369 36.125H61.34V40H60.3947V31.5469H61.34V35.2969H62.6213L65.7228 31.5469H66.9025L63.4338 35.6484L67.2853 40H66.0509L62.6369 36.125ZM76.8378 32.3438H73.7597V40H72.8222V32.3438H69.8613V31.5469H76.8378V32.3438ZM80.2703 38.6562L82.7391 31.5469H83.7469L80.1375 41.4375L79.95 41.875C79.4865 42.901 78.7703 43.4141 77.8016 43.4141C77.5776 43.4141 77.338 43.3776 77.0828 43.3047L77.075 42.5312L77.5594 42.5781C78.0177 42.5781 78.3875 42.4635 78.6687 42.2344C78.9552 42.0104 79.1974 41.6224 79.3953 41.0703L79.8094 39.9297L76.6219 31.5469H77.6453L80.2703 38.6562ZM89.8747 31.5469H90.8122V40H89.8747V33.0547L85.3122 40H84.3825V31.5469H85.3122V38.5L89.8747 31.5469ZM89.8278 28.5C89.8278 29.099 89.6221 29.5833 89.2106 29.9531C88.8044 30.3229 88.2575 30.5078 87.57 30.5078C86.8929 30.5078 86.346 30.3255 85.9294 29.9609C85.5179 29.5911 85.3122 29.1042 85.3122 28.5H86.1091C86.1091 28.9323 86.2367 29.263 86.4919 29.4922C86.7523 29.7214 87.1117 29.8359 87.57 29.8359C88.0283 29.8359 88.3851 29.7161 88.6403 29.4766C88.9007 29.237 89.0309 28.9115 89.0309 28.5H89.8278Z" fill="#595757"/>
</svg>
