<svg width="83" height="40" viewBox="0 0 83 40" fill="none" xmlns="http://www.w3.org/2000/svg">
<path d="M6.90039 3.68164C5.98242 3.68164 5.26628 4.05924 4.75195 4.81445C4.23763 5.56315 3.98047 6.59831 3.98047 7.91992C3.98047 10.6673 5.02539 12.041 7.11523 12.041C7.74674 12.041 8.35872 11.9531 8.95117 11.7773C9.54362 11.6016 10.1393 11.39 10.7383 11.1426V14.4043C9.54688 14.9316 8.19922 15.1953 6.69531 15.1953C4.54036 15.1953 2.88672 14.5703 1.73438 13.3203C0.588542 12.0703 0.015625 10.2637 0.015625 7.90039C0.015625 6.42253 0.292318 5.1237 0.845703 4.00391C1.4056 2.88411 2.20638 2.02474 3.24805 1.42578C4.29622 0.820312 5.52669 0.517578 6.93945 0.517578C8.48242 0.517578 9.95703 0.852865 11.3633 1.52344L10.1816 4.56055C9.6543 4.31315 9.12695 4.10482 8.59961 3.93555C8.07227 3.76628 7.50586 3.68164 6.90039 3.68164ZM20.5234 15L19.791 13.5352H19.7129C19.1986 14.1732 18.6745 14.6094 18.1406 14.8438C17.6068 15.0781 16.9167 15.1953 16.0703 15.1953C15.0286 15.1953 14.2083 14.8828 13.6094 14.2578C13.0104 13.6328 12.7109 12.7539 12.7109 11.6211C12.7109 10.4427 13.1211 9.56706 13.9414 8.99414C14.7617 8.41471 15.9499 8.08919 17.5059 8.01758L19.3516 7.95898V7.80273C19.3516 6.89128 18.9023 6.43555 18.0039 6.43555C17.1966 6.43555 16.1712 6.70898 14.9277 7.25586L13.8242 4.73633C15.1133 4.07227 16.7409 3.74023 18.707 3.74023C20.1263 3.74023 21.2233 4.0918 21.998 4.79492C22.7793 5.49805 23.1699 6.48112 23.1699 7.74414V15H20.5234ZM17.6914 12.5C18.1536 12.5 18.5475 12.3535 18.873 12.0605C19.2051 11.7676 19.3711 11.3867 19.3711 10.918V10.0586L18.4922 10.0977C17.2357 10.1432 16.6074 10.6055 16.6074 11.4844C16.6074 12.1615 16.9688 12.5 17.6914 12.5ZM38.6875 19.0625H35.3477V15H28.0332V19.0625H24.6934V12.1582H25.6699C26.2363 11.1947 26.7116 9.99349 27.0957 8.55469C27.4863 7.10938 27.7565 5.56966 27.9062 3.93555H37.0469V12.1582H38.6875V19.0625ZM33.2285 12.1582V6.77734H31.0508C30.9336 7.65625 30.7741 8.51237 30.5723 9.3457C30.3704 10.179 30.0775 11.1165 29.6934 12.1582H33.2285ZM49.5371 3.70117C49.0684 3.70117 48.5052 3.78255 47.8477 3.94531C47.1901 4.10807 46.5944 4.31966 46.0605 4.58008L44.9375 1.5625C45.8229 1.17839 46.64 0.911458 47.3887 0.761719C48.1374 0.611979 48.8991 0.537109 49.6738 0.537109C51.8483 0.537109 53.528 1.17188 54.7129 2.44141C55.9043 3.70443 56.5 5.49805 56.5 7.82227C56.5 10.2246 55.9076 12.054 54.7227 13.3105C53.5443 14.5671 51.8223 15.1953 49.5566 15.1953C47.8704 15.1953 46.3633 14.9251 45.0352 14.3848V11.1426C46.5846 11.7415 48.0918 12.041 49.5566 12.041C50.429 12.041 51.1094 11.8262 51.5977 11.3965C52.0859 10.9668 52.3594 10.3418 52.418 9.52148H46.7148V6.41602H52.418C52.3594 5.54362 52.0762 4.87305 51.5684 4.4043C51.0671 3.93555 50.39 3.70117 49.5371 3.70117ZM66.5977 3.93555H70.8164L66.6758 9.23828L71.1387 15H66.7734L62.6719 9.38477V15H58.8535V3.93555H62.6719V9.29688L66.5977 3.93555ZM82.9355 9.44336C82.9355 11.2533 82.4473 12.666 81.4707 13.6816C80.5007 14.6908 79.14 15.1953 77.3887 15.1953C75.709 15.1953 74.3711 14.6777 73.375 13.6426C72.3854 12.6074 71.8906 11.2077 71.8906 9.44336C71.8906 7.63997 72.3757 6.24023 73.3457 5.24414C74.3223 4.24154 75.6895 3.74023 77.4473 3.74023C78.5345 3.74023 79.4948 3.97135 80.3281 4.43359C81.1615 4.89583 81.8027 5.5599 82.252 6.42578C82.7077 7.28516 82.9355 8.29102 82.9355 9.44336ZM75.7676 9.44336C75.7676 10.3939 75.8945 11.1198 76.1484 11.6211C76.4023 12.1159 76.8288 12.3633 77.4277 12.3633C78.0202 12.3633 78.4368 12.1159 78.6777 11.6211C78.9251 11.1198 79.0488 10.3939 79.0488 9.44336C79.0488 8.49935 78.9251 7.78646 78.6777 7.30469C78.4303 6.82292 78.0072 6.58203 77.4082 6.58203C76.8223 6.58203 76.4023 6.82292 76.1484 7.30469C75.8945 7.77995 75.7676 8.49284 75.7676 9.44336ZM6.57031 37H5.57422V29.3184H1.17383V37H0.177734V28.4336H6.57031V37ZM9.69922 30.5781V34.6504L9.6582 35.7168L9.64062 36.0508L13.1152 30.5781H14.3281V37H13.4199V33.0742L13.4375 32.3008L13.4668 31.5391L9.99805 37H8.78516V30.5781H9.69922ZM20.7207 31.4102H18.6348V37H17.6621V31.4102H15.5996V30.5781H20.7207V31.4102ZM27.5352 33.7832C27.5352 34.8301 27.2715 35.6484 26.7441 36.2383C26.2168 36.8242 25.4883 37.1172 24.5586 37.1172C23.9844 37.1172 23.4746 36.9824 23.0293 36.7129C22.584 36.4434 22.2402 36.0566 21.998 35.5527C21.7559 35.0488 21.6348 34.459 21.6348 33.7832C21.6348 32.7363 21.8965 31.9219 22.4199 31.3398C22.9434 30.7539 23.6699 30.4609 24.5996 30.4609C25.498 30.4609 26.2109 30.7598 26.7383 31.3574C27.2695 31.9551 27.5352 32.7637 27.5352 33.7832ZM22.6426 33.7832C22.6426 34.6035 22.8066 35.2285 23.1348 35.6582C23.4629 36.0879 23.9453 36.3027 24.582 36.3027C25.2188 36.3027 25.7012 36.0898 26.0293 35.6641C26.3613 35.2344 26.5273 34.6074 26.5273 33.7832C26.5273 32.9668 26.3613 32.3477 26.0293 31.9258C25.7012 31.5 25.2148 31.2871 24.5703 31.2871C23.9336 31.2871 23.4531 31.4961 23.1289 31.9141C22.8047 32.332 22.6426 32.9551 22.6426 33.7832ZM32.5801 36.0625L32.7617 35.5176L33.0137 34.8262L34.7539 30.5898H35.9902V37H35.1289V31.6973L35.0117 32.0371L34.6719 32.9336L33.0137 37H32.1992L30.541 32.9219C30.334 32.3984 30.1914 31.9902 30.1133 31.6973V37H29.2461V30.5898H30.4355L32.1172 34.6621C32.2852 35.0918 32.4395 35.5586 32.5801 36.0625ZM39.043 30.5781V33.2676H42.6406V30.5781H43.6133V37H42.6406V34.1055H39.043V37H38.0703V30.5781H39.043ZM46.5898 30.5781V34.6504L46.5488 35.7168L46.5312 36.0508L50.0059 30.5781H51.2188V37H50.3105V33.0742L50.3281 32.3008L50.3574 31.5391L46.8887 37H45.6758V30.5781H46.5898ZM57.0254 30.5781H58.0918L55.3203 33.6777L58.3203 37H57.1836L54.2539 33.748V37H53.2812V30.5781H54.2539V33.7012L57.0254 30.5781ZM66.9629 31.4102H64.877V37H63.9043V31.4102H61.8418V30.5781H66.9629V31.4102ZM67.2148 30.5781H68.2578L69.6641 34.2402C69.9727 35.0762 70.1641 35.6797 70.2383 36.0508H70.2852C70.3359 35.8516 70.4414 35.5117 70.6016 35.0312C70.7656 34.5469 71.2969 33.0625 72.1953 30.5781H73.2383L70.4785 37.8906C70.2051 38.6133 69.8848 39.125 69.5176 39.4258C69.1543 39.7305 68.707 39.8828 68.1758 39.8828C67.8789 39.8828 67.5859 39.8496 67.2969 39.7832V39.0039C67.5117 39.0508 67.752 39.0742 68.0176 39.0742C68.6855 39.0742 69.1621 38.6992 69.4473 37.9492L69.8047 37.0352L67.2148 30.5781ZM75.1953 30.5781V34.6504L75.1543 35.7168L75.1367 36.0508L78.6113 30.5781H79.8242V37H78.916V33.0742L78.9336 32.3008L78.9629 31.5391L75.4941 37H74.2812V30.5781H75.1953ZM77.0293 29.7285C76.3066 29.7285 75.7793 29.5898 75.4473 29.3125C75.1152 29.0312 74.9297 28.5703 74.8906 27.9297H75.8047C75.8398 28.3359 75.9453 28.6191 76.1211 28.7793C76.3008 28.9395 76.6113 29.0195 77.0527 29.0195C77.4551 29.0195 77.752 28.9336 77.9434 28.7617C78.1387 28.5898 78.2578 28.3125 78.3008 27.9297H79.2207C79.1738 28.5469 78.9766 29.002 78.6289 29.2949C78.2812 29.584 77.748 29.7285 77.0293 29.7285Z" fill="white"/>
</svg>
