<svg width="24" height="17" fill="none" xmlns="http://www.w3.org/2000/svg"><path d="M18.833 13.28a.367.367 0 01-.254-.1l-4.264-4a.37.37 0 11.507-.54l4.265 4a.37.37 0 01-.254.64zm-14.235 0a.37.37 0 01-.254-.64l4.265-4a.371.371 0 01.508.539l-4.266 4a.367.367 0 01-.253.101z" fill="#000"/><path d="M21.355 17H2.076a1.855 1.855 0 01-1.852-1.853V2.513c0-1.022.831-1.852 1.852-1.852h19.279c1.02 0 1.852.83 1.852 1.852v12.634A1.855 1.855 0 0121.355 17zM2.076 1.402c-.612 0-1.111.499-1.111 1.111v12.634c0 .613.499 1.112 1.111 1.112h19.279c.612 0 1.111-.499 1.111-1.112V2.513c0-.612-.499-1.111-1.111-1.111H2.076z" fill="#000"/><path d="M11.716 10.693c-.493 0-.986-.164-1.361-.491L.839 1.9a.371.371 0 01-.037-.524.373.373 0 01.524-.035l9.516 8.3c.473.413 1.274.413 1.746 0l9.505-8.287a.371.371 0 01.487.559L13.076 10.2a2.07 2.07 0 01-1.36.492z" fill="#000"/></svg>