<svg width="24" height="23" fill="none" xmlns="http://www.w3.org/2000/svg"><path d="M18.689 22.877c-.956 0-2.11-.23-3.38-.69-2.784-1.006-5.812-2.995-8.528-5.6-2.716-2.604-4.79-5.51-5.84-8.179-.954-2.427-.957-4.42-.005-5.33.136-.132.275-.273.42-.418C2.222 1.785 3.203.8 4.502.844c.896.036 1.764.57 2.652 1.63 2.626 3.132 1.442 4.248.072 5.542l-.242.23c-.224.215-.647 1.21 3.292 4.988 1.286 1.233 2.383 2.136 3.26 2.682.55.344 1.538.864 1.943.476l.243-.235c1.348-1.312 2.511-2.443 5.775.073 1.106.852 1.661 1.684 1.698 2.544.054 1.246-.981 2.189-1.894 3.02-.151.138-.298.271-.435.402-.472.453-1.227.681-2.178.681zM4.41 1.584c-.924 0-1.758.842-2.496 1.587-.148.15-.292.295-.433.43-.709.68-.637 2.463.182 4.546 1.013 2.573 3.024 5.385 5.665 7.918 2.64 2.53 5.57 4.46 8.253 5.43 2.173.787 4.033.854 4.74.175.141-.135.293-.273.449-.415.793-.723 1.694-1.543 1.654-2.452-.027-.625-.501-1.297-1.41-1.997-2.72-2.098-3.48-1.357-4.741-.13l-.247.239c-.603.579-1.582.45-2.911-.378-.922-.575-2.061-1.51-3.384-2.78-3.27-3.135-4.315-5.054-3.292-6.037l.246-.234c1.282-1.21 2.056-1.94-.132-4.549-.732-.87-1.432-1.326-2.083-1.352l-.06-.001z" fill="#000"/></svg>