<svg width="21" height="27" fill="none" xmlns="http://www.w3.org/2000/svg"><path d="M10.107 26.825a.527.527 0 00.785 0l.006-.008c.487-.55 9.827-11.116 9.827-16.584M10.107 26.825l.373-.334s0 0 0 0m-.373.334c-.4-.448-9.833-11.096-9.833-16.592m9.833 16.592l.373-.334m0 0c.01.011.026.012.037.002h0l.002-.002-.002.002h0l.002.003h0l.373.329-.373-.334.005-.005c.238-.27 2.657-3.006 5.026-6.355 1.197-1.691 2.373-3.528 3.247-5.275.883-1.76 1.428-3.37 1.428-4.623M10.48 26.491a79.661 79.661 0 01-5.03-6.358c-1.197-1.692-2.373-3.53-3.248-5.276-.882-1.761-1.428-3.37-1.428-4.624m19.45 0h.5m-.5 0s0 0 0 0h.5m-.5 0C20.223 4.863 15.873.51 10.503.5m10.223 9.733C20.722 4.587 16.148.009 10.502 0m0 0v.5s0 0 0 0m0-.5C4.854.006.277 4.585.274 10.233M10.502 0v.5s0 0 0 0m0 0C5.13.506.777 4.86.774 10.233m-.5 0h.5m-.5 0h.5m-.5 0h.5m-.5 0h.5m0 0s0 0 0 0m9.348 15.764l.38.443.38-.442c.904-1.053 3.212-3.805 5.296-6.865 1.042-1.529 2.035-3.145 2.77-4.671.727-1.513 1.23-2.993 1.23-4.234 0-5.344-4.333-9.675-9.676-9.675S.827 4.884.827 10.228c0 1.24.502 2.72 1.23 4.232.735 1.526 1.728 3.141 2.77 4.67 2.083 3.057 4.391 5.81 5.295 6.867z" stroke="#000"/><path d="M10.687 5.132a5.543 5.543 0 105.548 5.543 5.553 5.553 0 00-5.548-5.543zm0 10.039a4.49 4.49 0 110-8.98 4.49 4.49 0 010 8.98z" fill="#000"/></svg>