<svg width="91" height="44" fill="none" xmlns="http://www.w3.org/2000/svg"><path d="M13.918 12.316c-.133 1.836-.813 3.282-2.04 4.336-1.218 1.055-2.827 1.582-4.827 1.582-2.188 0-3.91-.734-5.168-2.203-1.25-1.476-1.875-3.5-1.875-6.07V8.918c0-1.64.289-3.086.867-4.336.578-1.25 1.402-2.207 2.473-2.871C4.426 1.039 5.676.703 7.098.703c1.968 0 3.554.527 4.757 1.582 1.204 1.055 1.899 2.535 2.086 4.442h-3.515c-.086-1.102-.395-1.899-.926-2.391-.523-.5-1.324-.75-2.402-.75-1.172 0-2.051.422-2.637 1.266-.578.835-.875 2.136-.89 3.902v1.289c0 1.844.277 3.191.831 4.043.563.851 1.446 1.277 2.649 1.277 1.086 0 1.894-.246 2.426-.738.539-.5.847-1.27.925-2.309h3.516zM23.352 18c-.157-.305-.27-.684-.34-1.137-.82.914-1.887 1.371-3.2 1.371-1.242 0-2.273-.359-3.093-1.078-.813-.718-1.219-1.625-1.219-2.718 0-1.344.496-2.376 1.488-3.094 1-.719 2.442-1.082 4.325-1.09h1.558v-.727c0-.586-.152-1.054-.457-1.406-.297-.351-.77-.527-1.418-.527-.57 0-1.02.136-1.348.41-.32.273-.48.648-.48 1.125h-3.387c0-.734.227-1.414.68-2.04.453-.624 1.094-1.112 1.922-1.464.828-.36 1.758-.54 2.789-.54 1.562 0 2.8.395 3.715 1.185.922.78 1.383 1.882 1.383 3.304v5.496c.007 1.203.175 2.114.503 2.73v.2h-3.421zm-2.801-2.355c.5 0 .96-.11 1.383-.329.421-.226.734-.527.937-.902v-2.18h-1.265c-1.696 0-2.598.586-2.708 1.758l-.011.2c0 .421.148.769.445 1.042.297.274.703.41 1.219.41zm8.496-.375c.765-.813 1.285-1.618 1.558-2.415.274-.796.426-1.925.457-3.386l.094-4.149h9.328v9.95h1.828v6.539h-3.386V18h-7.512v3.809h-3.457v-6.54h1.09zm3.996 0h4.066V8.12h-2.636l-.024 1.524c-.07 2.328-.539 4.203-1.406 5.625zm19.922-2.942c.101 1.102.426 1.895.972 2.379.547.477 1.34.715 2.38.715 1.148 0 2-.379 2.554-1.137.555-.765.875-1.894.961-3.387h-5.39V8.051h5.378c-.093-1.524-.437-2.653-1.03-3.387-.587-.742-1.427-1.113-2.52-1.113-1.063 0-1.86.254-2.391.761-.531.5-.84 1.31-.926 2.426h-3.516c.172-1.867.852-3.34 2.04-4.418C52.672 1.242 54.27.703 56.27.703c1.421 0 2.667.336 3.738 1.008 1.078.664 1.906 1.621 2.484 2.871.578 1.242.867 2.691.867 4.348v1.113c0 2.516-.629 4.512-1.886 5.988-1.25 1.469-2.97 2.203-5.157 2.203-2.015 0-3.632-.53-4.851-1.593-1.211-1.07-1.883-2.508-2.016-4.313h3.516zm17.625.996h-1.36V18h-3.386V5.32h3.387v4.77h1.207l2.765-4.77h4.278l-4.149 6.035L77.867 18h-4.511l-2.766-4.676zm7.347-1.781c0-1.258.243-2.379.727-3.363.484-.985 1.18-1.746 2.086-2.285.914-.54 1.973-.81 3.176-.81 1.71 0 3.105.524 4.183 1.571 1.086 1.047 1.692 2.469 1.817 4.266l.023.867c0 1.945-.543 3.508-1.629 4.688-1.086 1.171-2.543 1.757-4.37 1.757-1.829 0-3.29-.586-4.384-1.757-1.085-1.172-1.629-2.766-1.629-4.782v-.152zm3.387.246c0 1.203.227 2.125.68 2.766.453.633 1.102.949 1.945.949.82 0 1.461-.313 1.922-.938.461-.632.692-1.64.692-3.023 0-1.18-.231-2.094-.692-2.742-.46-.649-1.11-.973-1.945-.973-.828 0-1.469.324-1.922.973-.453.64-.68 1.636-.68 2.988z" fill="#2D2D2D"/><path d="M8.836 40h-.961V29.445H1.437V40h-.96V28.625h8.359V40zm7.386-8.453h.937V40h-.937v-6.945L11.659 40h-.93v-8.453h.93V38.5l4.563-6.953zm8.635.797H21.78V40h-.937v-7.656H17.88v-.797h6.976v.797zm-.184 3.304c0-.812.156-1.544.468-2.195.318-.65.763-1.156 1.336-1.516a3.599 3.599 0 011.961-.546c1.125 0 2.037.396 2.735 1.187.697.787 1.046 1.83 1.046 3.133v.195c0 .818-.159 1.555-.476 2.211-.313.651-.755 1.154-1.328 1.508-.573.354-1.227.531-1.961.531-1.12 0-2.032-.393-2.735-1.18-.698-.791-1.047-1.838-1.047-3.14v-.188zm.937.258c0 1.01.26 1.841.781 2.492.526.646 1.214.97 2.063.97.843 0 1.526-.324 2.047-.97.526-.65.789-1.507.789-2.57v-.18a4.3 4.3 0 00-.36-1.773c-.24-.536-.575-.95-1.008-1.242a2.559 2.559 0 00-1.484-.446c-.833 0-1.513.329-2.039.985-.526.65-.789 1.505-.789 2.562v.172zm12.347 2.828l3.359-7.187h1.156V40h-.937v-6.938L38.285 40h-.664l-3.313-7.094V40h-.93v-8.453h1.227l3.352 7.187zM50.592 40h-.937v-3.875H45.1V40h-.938v-8.453h.938v3.789h4.555v-3.79h.937V40zm7.183-8.453h.937V40h-.937v-6.945L53.212 40h-.93v-8.453h.93V38.5l4.563-6.953zm4.862 4.578H61.34V40h-.945v-8.453h.945v3.75h1.281l3.102-3.75h1.18l-3.47 4.101L67.286 40h-1.234l-3.414-3.875zm14.2-3.781H73.76V40h-.938v-7.656h-2.96v-.797h6.976v.797zm3.433 6.312l2.47-7.11h1.007l-3.61 9.892-.187.437c-.463 1.026-1.18 1.54-2.148 1.54-.224 0-.464-.037-.72-.11l-.007-.774.484.047c.459 0 .829-.114 1.11-.344.286-.224.528-.612.726-1.164l.414-1.14-3.187-8.383h1.023l2.625 7.11zm9.605-7.11h.937V40h-.937v-6.945L85.312 40h-.93v-8.453h.93V38.5l4.563-6.953zm-.047-3.046c0 .599-.206 1.083-.617 1.453-.407.37-.954.555-1.641.555-.677 0-1.224-.182-1.64-.547-.412-.37-.618-.857-.618-1.461h.797c0 .432.128.763.383.992.26.23.62.344 1.078.344.458 0 .815-.12 1.07-.36.26-.239.39-.564.39-.976h.798z" fill="#595757"/></svg>