<svg width="83" height="40" fill="none" xmlns="http://www.w3.org/2000/svg"><path d="M6.9 3.682c-.918 0-1.634.377-2.148 1.132-.514.75-.772 1.784-.772 3.106 0 2.747 1.045 4.121 3.135 4.121a6.42 6.42 0 001.836-.264 18.349 18.349 0 001.787-.634v3.261c-1.191.528-2.539.791-4.043.791-2.155 0-3.808-.625-4.96-1.875C.588 12.07.014 10.264.014 7.9c0-1.477.277-2.776.83-3.896.56-1.12 1.361-1.98 2.403-2.578C4.296.82 5.527.518 6.939.518c1.543 0 3.018.335 4.424 1.005l-1.181 3.038A13.281 13.281 0 008.6 3.936a5.529 5.529 0 00-1.7-.254zM20.523 15l-.732-1.465h-.078c-.514.638-1.039 1.074-1.572 1.309-.534.234-1.224.351-2.07.351-1.042 0-1.863-.312-2.462-.937-.599-.625-.898-1.504-.898-2.637 0-1.178.41-2.054 1.23-2.627.82-.58 2.009-.905 3.565-.976l1.846-.059v-.156c0-.912-.45-1.367-1.348-1.367-.807 0-1.833.273-3.076.82l-1.104-2.52c1.29-.664 2.917-.996 4.883-.996 1.42 0 2.516.352 3.291 1.055.781.703 1.172 1.686 1.172 2.95V15h-2.647zm-2.832-2.5c.463 0 .857-.146 1.182-.44.332-.292.498-.673.498-1.142v-.86l-.879.04c-1.256.045-1.885.507-1.885 1.386 0 .678.362 1.016 1.084 1.016zm20.997 6.563h-3.34V15h-7.315v4.063h-3.34v-6.905h.977c.566-.963 1.042-2.165 1.426-3.603.39-1.446.66-2.985.81-4.62h9.14v8.223h1.642v6.905zm-5.46-6.905v-5.38h-2.177a24.876 24.876 0 01-.479 2.568c-.202.833-.494 1.77-.879 2.812h3.535zm16.31-8.457c-.47 0-1.033.082-1.69.244a9.001 9.001 0 00-1.788.635l-1.123-3.018c.886-.384 1.703-.65 2.452-.8.748-.15 1.51-.225 2.285-.225 2.174 0 3.854.635 5.039 1.904C55.904 3.704 56.5 5.498 56.5 7.822c0 2.403-.592 4.232-1.777 5.488-1.179 1.257-2.9 1.885-5.166 1.885-1.687 0-3.194-.27-4.522-.81v-3.242c1.55.598 3.057.898 4.522.898.872 0 1.552-.215 2.04-.645.489-.43.762-1.054.821-1.875h-5.703V6.416h5.703c-.059-.872-.342-1.543-.85-2.012-.5-.468-1.178-.703-2.03-.703zm17.06.235h4.218l-4.14 5.302L71.139 15h-4.366l-4.101-5.615V15h-3.819V3.936h3.819v5.36l3.926-5.36zm16.338 5.507c0 1.81-.489 3.223-1.465 4.239-.97 1.009-2.331 1.513-4.082 1.513-1.68 0-3.018-.517-4.014-1.552-.99-1.036-1.484-2.435-1.484-4.2 0-1.803.485-3.203 1.455-4.199.976-1.002 2.343-1.504 4.101-1.504 1.087 0 2.048.231 2.881.694a4.697 4.697 0 011.924 1.992c.456.86.684 1.865.684 3.017zm-7.168 0c0 .95.126 1.677.38 2.178.254.495.68.742 1.28.742.592 0 1.009-.247 1.25-.742.247-.501.37-1.227.37-2.178 0-.944-.123-1.657-.37-2.138-.248-.482-.67-.723-1.27-.723-.586 0-1.006.24-1.26.723-.254.475-.38 1.188-.38 2.138zM6.57 37h-.996v-7.682h-4.4V37H.178v-8.566H6.57V37zm3.13-6.422v4.072l-.042 1.067-.017.334 3.474-5.473h1.213V37h-.908v-3.926l.018-.773.029-.762L9.998 37H8.785v-6.422H9.7zm11.02.832h-2.085V37h-.973v-5.59H15.6v-.832h5.12v.832zm6.815 2.373c0 1.047-.264 1.865-.79 2.455-.528.586-1.257.88-2.186.88a2.902 2.902 0 01-1.53-.405 2.669 2.669 0 01-1.031-1.16c-.242-.504-.363-1.094-.363-1.77 0-1.047.261-1.861.785-2.443.523-.586 1.25-.88 2.18-.88.898 0 1.61.3 2.138.897.532.598.797 1.407.797 2.426zm-4.892 0c0 .82.164 1.445.492 1.875.328.43.81.645 1.447.645s1.12-.213 1.447-.639c.332-.43.498-1.057.498-1.88 0-.817-.166-1.436-.498-1.858-.328-.426-.814-.639-1.459-.639-.636 0-1.117.21-1.441.627-.324.418-.486 1.041-.486 1.87zm9.937 2.28l.182-.545.252-.692 1.74-4.236h1.236V37h-.861v-5.303l-.117.34-.34.897L33.014 37h-.815l-1.658-4.078c-.207-.524-.35-.932-.428-1.225V37h-.867v-6.41h1.19l1.681 4.072c.168.43.323.897.463 1.4zm6.463-5.485v2.69h3.598v-2.69h.972V37h-.972v-2.895h-3.598V37h-.973v-6.422h.973zm7.547 0v4.072l-.041 1.067-.018.334 3.475-5.473h1.213V37h-.909v-3.926l.018-.773.03-.762L46.887 37h-1.212v-6.422h.914zm10.435 0h1.067l-2.772 3.1 3 3.322h-1.136l-2.93-3.252V37h-.973v-6.422h.973v3.123l2.771-3.123zm9.938.832h-2.086V37h-.973v-5.59h-2.062v-.832h5.12v.832zm.252-.832h1.043l1.406 3.662c.309.836.5 1.44.574 1.81h.047c.05-.198.156-.538.317-1.019.164-.484.695-1.968 1.593-4.453h1.043l-2.76 7.313c-.273.722-.593 1.234-.96 1.535-.364.304-.811.457-1.342.457-.297 0-.59-.033-.88-.1v-.78c.216.048.456.071.722.071.668 0 1.144-.375 1.43-1.125l.357-.914-2.59-6.457zm7.98 0v4.072l-.04 1.067-.018.334 3.474-5.473h1.213V37h-.908v-3.926l.018-.773.029-.762L75.494 37h-1.213v-6.422h.914zm1.834-.85c-.722 0-1.25-.138-1.582-.416-.332-.28-.517-.742-.556-1.382h.914c.035.406.14.69.316.85.18.16.49.24.932.24.402 0 .699-.086.89-.258.196-.172.315-.45.358-.832h.92c-.047.617-.244 1.072-.592 1.365-.348.289-.881.433-1.6.433z" fill="#fff"/></svg>